<?xml version="1.0" standalone="no"?>
<!DOCTYPE svg PUBLIC "-//W3C//DTD SVG 20010904//EN"
 "http://www.w3.org/TR/2001/REC-SVG-20010904/DTD/svg10.dtd">
<svg version="1.0" xmlns="http://www.w3.org/2000/svg"
 width="575.000000pt" height="575.000000pt" viewBox="0 0 575.000000 575.000000"
 preserveAspectRatio="xMidYMid meet">
<metadata>
Created by potrace 1.11, written by Peter Selinger 2001-2013
</metadata>
<g transform="translate(0.000000,575.000000) scale(0.100000,-0.100000)"
fill="#000000" stroke="none">
<path d="M0 2875 l0 -2875 2875 0 2875 0 0 2875 0 2875 -2875 0 -2875 0 0
-2875z m3632 1583 c-8 -127 -10 -891 -2 -983 l5 -60 -119 -3 c-132 -3 -146 2
-146 54 0 19 -2 34 -5 34 -3 0 -25 -15 -49 -34 -117 -89 -309 -66 -416 50 -84
92 -122 229 -101 371 29 194 143 316 312 330 87 7 146 -9 194 -53 21 -19 40
-34 43 -34 2 0 3 91 1 203 l-4 202 45 7 c56 9 186 25 222 27 l28 1 -8 -112z
m-2881 29 c91 -60 87 -194 -6 -233 -72 -30 -162 -11 -204 42 -19 24 -22 38
-19 86 3 38 11 65 24 79 46 52 147 65 205 26z m1891 -2 c57 -43 74 -114 42
-181 -31 -65 -162 -85 -232 -35 -37 26 -58 84 -48 134 7 36 45 83 81 98 34 15
128 5 157 -16z m-400 -325 c26 -46 47 -89 45 -95 -2 -5 -26 -12 -53 -15 -81
-8 -124 -49 -110 -103 3 -12 28 -49 57 -82 64 -75 89 -127 89 -189 0 -113 -47
-179 -175 -242 -54 -27 -87 -36 -127 -38 l-53 -1 -52 79 c-29 44 -53 87 -53
97 0 12 12 19 48 24 98 15 143 52 128 108 -3 14 -25 49 -48 77 -93 114 -112
170 -89 256 28 105 190 217 305 211 38 -2 41 -4 88 -87z m2002 41 c119 -52
206 -182 214 -321 7 -116 7 -116 -213 -135 -99 -8 -199 -17 -222 -21 l-43 -5
16 -30 c35 -68 172 -91 270 -45 28 13 55 29 58 35 17 26 38 6 77 -74 l42 -85
-33 -35 c-55 -57 -118 -78 -247 -83 -95 -4 -121 -1 -178 18 -165 55 -257 194
-257 390 0 257 165 429 399 416 42 -3 90 -13 117 -25z m-3031 -47 c5 -27 10
-50 12 -52 1 -2 32 15 69 37 100 62 155 77 230 63 75 -14 134 -54 161 -107 18
-37 20 -63 23 -348 2 -226 0 -312 -9 -323 -14 -17 -219 -20 -251 -3 -19 10
-20 16 -13 145 4 73 4 182 0 240 -6 94 -10 110 -31 131 -37 37 -97 30 -151
-20 -23 -20 -23 -25 -23 -252 0 -166 -3 -234 -12 -243 -14 -14 -225 -17 -247
-3 -12 7 -15 62 -16 298 -2 248 -6 314 -28 426 -1 6 14 15 33 19 95 21 226 45
235 44 5 -2 14 -25 18 -52z m-401 0 c-2 -10 -6 -181 -10 -379 l-7 -360 -110
-3 c-60 -2 -120 0 -132 3 l-23 5 -1 293 c0 160 -4 328 -8 372 -4 44 -7 82 -5
85 1 3 69 5 151 4 140 -1 148 -2 145 -20z m1881 -20 c-2 -21 -5 -189 -8 -373
-3 -184 -8 -338 -11 -343 -3 -4 -29 -8 -59 -8 l-54 0 -6 -44 c-4 -27 -2 -52 5
-66 11 -21 17 -22 103 -19 90 4 92 3 91 -18 0 -13 -1 -68 -2 -123 l-2 -99 -92
-3 -93 -3 -3 -111 c-2 -100 -1 -113 18 -137 18 -22 29 -27 68 -27 26 0 61 4
79 9 18 5 35 5 40 0 5 -5 6 -38 2 -77 -5 -37 -8 -76 -8 -88 -1 -14 -14 -27
-43 -41 -74 -36 -120 -47 -203 -47 -66 -1 -89 3 -130 24 -85 42 -90 60 -90
295 l0 200 -30 3 c-16 2 -34 8 -39 13 -5 5 -10 52 -11 104 -2 95 -2 95 24 101
14 3 31 7 37 9 18 5 25 62 18 146 -4 42 -4 93 0 114 7 37 8 37 44 32 20 -3 45
-8 55 -12 15 -7 17 3 19 106 2 153 -1 335 -8 439 l-6 85 149 -1 148 0 -2 -40z
m-1689 -824 c113 -43 191 -125 227 -243 17 -56 20 -86 17 -165 -7 -134 -32
-198 -112 -278 -96 -96 -214 -130 -353 -100 -176 37 -287 166 -300 350 -15
219 76 378 255 442 59 21 202 18 266 -6z m2770 -54 c72 -41 174 -98 226 -128
53 -29 109 -63 125 -76 l30 -23 -24 -18 c-21 -16 -23 -24 -19 -75 3 -39 1 -56
-7 -56 -20 0 -24 11 -12 32 9 15 9 22 1 25 -7 2 -10 13 -7 23 7 25 1 25 -47
-2 l-39 -23 -3 -88 -3 -89 -180 -99 c-144 -80 -184 -98 -200 -91 -11 5 -92 50
-180 101 l-159 91 -1 68 0 67 -100 52 c-55 28 -100 56 -100 62 0 11 540 321
559 321 5 0 68 -33 140 -74z m-2141 -16 c-1 -25 -3 -121 -5 -215 -3 -183 6
-233 45 -260 44 -31 117 -11 156 44 19 26 21 45 23 252 l3 224 131 3 c97 2
134 -1 141 -10 6 -8 7 -78 3 -188 -4 -96 -5 -259 -2 -361 4 -151 2 -188 -9
-194 -7 -5 -67 -9 -132 -9 -132 0 -137 2 -137 67 0 20 -3 37 -6 37 -3 0 -24
-13 -47 -29 -112 -76 -187 -94 -280 -67 -117 34 -154 99 -168 295 -8 119 1
351 17 411 13 49 19 51 148 48 l121 -3 -2 -45z m2487 -407 c-1 -31 -3 -35 -11
-20 -6 9 -14 15 -20 12 -5 -4 -9 4 -9 16 0 18 2 19 15 9 12 -10 15 -10 15 4 0
9 2 16 5 16 3 0 5 -17 5 -37z m-30 -57 c0 -3 -4 -8 -10 -11 -5 -3 -10 -1 -10
4 0 6 5 11 10 11 6 0 10 -2 10 -4z m-950 -51 c49 -25 70 -62 70 -121 0 -45 -5
-59 -29 -86 -27 -30 -34 -33 -102 -36 -88 -4 -131 17 -155 73 -18 44 -18 69 1
109 31 65 144 98 215 61z m931 -12 c-12 -20 -14 -14 -5 12 4 9 9 14 11 11 3
-2 0 -13 -6 -23z m1 -63 c-2 -16 -8 -30 -13 -30 -10 0 -11 7 -3 38 9 33 21 27
16 -8z m953 -7 l60 -8 0 -110 c0 -60 4 -116 9 -123 6 -10 32 -13 100 -10 68 2
91 0 90 -9 -1 -7 -2 -62 -2 -123 l-2 -110 -94 0 c-107 0 -106 0 -105 -83 2
-164 26 -203 119 -193 30 3 66 9 79 13 l24 6 -6 -93 c-4 -51 -12 -99 -17 -105
-6 -7 -34 -23 -63 -36 -41 -18 -75 -24 -157 -27 -94 -3 -109 -1 -149 20 -84
44 -86 51 -83 283 2 194 2 204 -17 214 -11 6 -26 9 -33 6 -32 -12 -39 10 -36
111 l3 99 35 5 35 5 3 139 c1 77 7 145 13 152 7 9 23 9 72 -1 34 -7 89 -17
122 -22z m-1177 -233 c104 -55 176 -157 193 -274 11 -76 3 -123 -25 -141 -14
-9 -96 -20 -233 -32 -132 -11 -213 -21 -213 -28 0 -23 34 -58 74 -76 72 -33
175 -20 247 32 16 11 36 19 43 16 15 -6 86 -141 86 -162 0 -28 -80 -84 -151
-106 -100 -30 -249 -24 -331 14 -165 75 -251 253 -220 454 16 98 48 169 107
232 77 82 154 112 280 107 69 -2 89 -7 143 -36z m797 9 c46 -22 50 -26 49 -59
-1 -19 -12 -68 -24 -108 -22 -71 -24 -74 -49 -68 -14 4 -51 9 -81 12 -100 10
-161 -43 -167 -143 -5 -70 16 -117 66 -150 41 -27 119 -31 174 -8 l36 15 11
-36 c7 -19 18 -69 25 -112 17 -94 11 -103 -85 -128 -84 -21 -206 -15 -273 14
-93 41 -180 144 -212 248 -23 75 -20 217 6 293 37 110 139 211 248 246 71 23
212 15 276 -16z m-2048 -13 c76 -35 144 -104 180 -183 21 -45 27 -77 31 -154
8 -161 -28 -260 -125 -349 -71 -65 -141 -91 -247 -91 -100 0 -125 5 -199 44
-136 71 -209 222 -194 402 15 170 91 281 234 341 51 21 71 24 158 22 85 -3
109 -7 162 -32z m-1427 -12 c146 -65 225 -240 198 -437 -18 -135 -89 -243
-196 -298 -81 -41 -211 -40 -294 2 -20 10 -42 19 -49 19 -8 0 -11 -38 -8 -142
l4 -143 -124 -3 c-68 -1 -128 1 -133 6 -5 5 -10 189 -12 408 -2 246 -7 431
-15 483 -7 50 -8 88 -3 93 12 12 187 40 226 36 26 -3 32 -8 39 -40 l9 -36 48
30 c26 16 65 36 86 44 55 20 151 11 224 -22z m555 -1 c11 -65 13 -68 33 -50
35 31 127 67 174 67 26 0 49 -3 52 -8 2 -4 2 -71 -1 -150 l-6 -142 -73 0 c-74
0 -123 -12 -136 -33 -4 -7 -8 -108 -8 -224 l0 -213 -67 -1 c-109 -1 -198 2
-203 8 -3 2 -6 131 -6 286 -1 253 -6 330 -29 419 -6 23 -3 28 17 32 73 15 225
43 235 45 7 0 15 -16 18 -36z m1480 -16 c4 -24 5 -191 3 -373 -4 -308 -5 -332
-25 -382 -32 -80 -66 -117 -136 -151 -69 -34 -194 -58 -210 -42 -6 6 -13 51
-15 101 l-4 90 32 17 c18 10 44 28 59 40 26 21 26 21 29 200 2 98 -2 241 -8
318 -6 77 -13 154 -13 170 l-2 30 95 7 c52 4 104 9 115 11 65 13 73 9 80 -36z"/>
<path d="M3150 3963 c-42 -22 -80 -90 -80 -145 0 -76 53 -149 118 -163 49 -10
117 26 143 77 70 138 -54 296 -181 231z"/>
<path d="M4022 4004 c-41 -28 -69 -113 -42 -129 15 -9 189 7 206 19 14 11 14
16 1 47 -29 70 -110 102 -165 63z"/>
<path d="M800 3068 c-123 -84 -75 -308 65 -308 78 0 135 68 135 162 0 91 -62
168 -135 168 -18 0 -47 -10 -65 -22z"/>
<path d="M3382 3156 c-138 -78 -251 -143 -252 -146 0 -3 113 -62 251 -132
l251 -126 235 140 235 141 -49 27 c-26 15 -132 75 -234 132 l-186 104 -251
-140z"/>
<path d="M3800 2814 c-85 -51 -161 -94 -169 -94 -7 0 -83 36 -167 80 -85 44
-156 80 -159 80 -3 0 -5 -22 -5 -49 l0 -49 157 -89 c87 -48 163 -89 170 -91 7
-2 87 38 178 88 l165 91 0 65 c0 35 -3 64 -7 63 -5 0 -78 -43 -163 -95z"/>
<path d="M3620 2232 c-46 -23 -83 -104 -59 -128 13 -12 29 -13 109 -4 51 6 97
13 101 16 15 9 10 37 -11 71 -32 54 -88 71 -140 45z"/>
<path d="M2364 2182 c-39 -25 -74 -95 -74 -148 1 -127 125 -209 210 -138 43
37 60 74 60 134 0 95 -46 159 -122 167 -31 3 -52 -1 -74 -15z"/>
<path d="M876 2159 c-104 -91 -49 -299 79 -299 46 0 98 31 117 70 21 42 23
128 4 173 -36 88 -134 115 -200 56z"/>
</g>
</svg>
